# xmcd CD database file
#
# Track frame offsets:
#	150
#	14252
#	32374
#	51776
#	67359
#	82325
#	99039
#	115642
#	126184
#	141313
#	158119
#	171676
#	185443
#	201141
#	213970
#
# Disc length: 3106 seconds
#
# Revision: 0
# Processed by: cddbd v1.5.2PL0 Copyright (c) Steve Scherf et al.
# Submitted via: CDex 1.60beta1-cs1
#
DISCID=d50c200f
DTITLE=Wouter Hamel - Nobody's Tune
DYEAR=2009
DGENRE=Jazz
TTITLE0=One More Time On The Merry-Go-Round
TTITLE1=Big Blue Sea
TTITLE2=When Morning Comes
TTITLE3=In Between
TTITLE4=Nobody's Tune
TTITLE5=Sir Henry
TTITLE6=March, April, May
TTITLE7=Quite The Disguise
TTITLE8=Once In A Lifetime
TTITLE9=Tiny Town
TTITLE10=See You Once Again
TTITLE11=Amsterdam
TTITLE12=Slow and Blue
TTITLE13=Adore
TTITLE14=Late At Night
EXTD=YEAR: 2009
EXTT0=
EXTT1=
EXTT2=
EXTT3=
EXTT4=
EXTT5=
EXTT6=
EXTT7=
EXTT8=
EXTT9=
EXTT10=
EXTT11=
EXTT12=
EXTT13=
EXTT14=
PLAYORDER=
